<svg xmlns="http://www.w3.org/2000/svg" width="512" height="512" viewBox="0 0 512 512"><g transform="translate(128,40) scale(1.75)"><path d="M8.8,212.0 C-7.4,200.0 -4.7,150.0 0.8,116.0 C7.5,62.0 35.8,16.0 75.0,16.0 C114.2,16.0 142.5,62.0 149.2,116.0 C154.7,150.0 157.4,200.0 141.2,212.0 C130.3,224.0 122.2,214.0 111.5,224.0 C98.0,236.0 84.5,218.0 75.0,226.0 C65.5,234.0 52.0,218.0 38.5,224.0 C27.8,228.0 19.6,222.0 8.8,212.0 Z" fill="#f6f6f8" stroke="#1a1a2a" stroke-width="5.5" stroke-linejoin="round"/><g transform="rotate(-7 75 96)"><rect x="48.5" y="83.5" width="53.0" height="7.0" rx="3.0" fill="#22223a"/><rect x="50.5" y="88.5" width="21.0" height="15.0" rx="6.0" fill="#22223a"/><rect x="78.5" y="88.5" width="21.0" height="15.0" rx="6.0" fill="#22223a"/><rect x="70.5" y="89.5" width="9.0" height="4.0" rx="2.0" fill="#22223a"/><line x1="50.5" y1="88.5" x2="43.5" y2="85.5" stroke="#22223a" stroke-width="3.5" stroke-linecap="round"/><line x1="99.5" y1="88.5" x2="106.5" y2="85.5" stroke="#22223a" stroke-width="3.5" stroke-linecap="round"/><line x1="46.3" y1="99.0" x2="55.8" y2="91.5" stroke="#fff" stroke-width="2.6" stroke-linecap="round" opacity="0.85"/><line x1="74.3" y1="99.0" x2="83.8" y2="91.5" stroke="#fff" stroke-width="2.6" stroke-linecap="round" opacity="0.85"/></g><path d="M58.0,106.0 Q75.0,128.0 92.0,106.0 Q75.0,112.0 58.0,106.0 Z" fill="#22223a"/><path d="M63.0,108.5 Q75.0,113.0 87.0,108.5" fill="none" stroke="#fff" stroke-width="2.2"/></g></svg>