<svg xmlns="http://www.w3.org/2000/svg" width="512" height="512" viewBox="0 0 512 512"><g transform="translate(128,40) scale(1.75)"><path d="M8.8,212.0 C-7.4,200.0 -4.7,150.0 0.8,116.0 C7.5,62.0 35.8,16.0 75.0,16.0 C114.2,16.0 142.5,62.0 149.2,116.0 C154.7,150.0 157.4,200.0 141.2,212.0 C130.3,224.0 122.2,214.0 111.5,224.0 C98.0,236.0 84.5,218.0 75.0,226.0 C65.5,234.0 52.0,218.0 38.5,224.0 C27.8,228.0 19.6,222.0 8.8,212.0 Z" fill="#f6f6f8" stroke="#1a1a2a" stroke-width="5.5" stroke-linejoin="round"/><circle cx="60.0" cy="96.0" r="15.0" fill="#fff"/><circle cx="90.0" cy="96.0" r="15.0" fill="#fff"/><circle cx="60.0" cy="98.0" r="7.5" fill="#22223a"/><circle cx="90.0" cy="98.0" r="7.5" fill="#22223a"/><circle cx="62.5" cy="94.5" r="2.4" fill="#fff"/><circle cx="92.5" cy="94.5" r="2.4" fill="#fff"/><ellipse cx="55.0" cy="115.0" rx="6.5" ry="4.0" fill="#ff8aa0" opacity="0.8"/><ellipse cx="95.0" cy="115.0" rx="6.5" ry="4.0" fill="#ff8aa0" opacity="0.8"/><path d="M67.0,111.0 Q75.0,122.0 83.0,111.0" fill="none" stroke="#22223a" stroke-width="3.4" stroke-linecap="round"/><path d="M70.0,114.0 Q75.0,123.0 80.0,114.0 Z" fill="#ff5d73"/></g></svg>