<svg xmlns="http://www.w3.org/2000/svg" width="512" height="512" viewBox="0 0 512 512"><rect width="512" height="512" fill="#1a1a1a"/><g transform="translate(51.2,51.2) scale(0.8)"><path d="M256,256 L216.4,5.7 A253.4,253.4 0 0 1 295.6,5.7 Z" fill="#c41e30"/><path d="M256,256 L221.6,38.6 A220.2,220.2 0 0 1 290.4,38.6 Z" fill="#1a1a1a"/><path d="M256,256 L232.0,104.3 A153.6,153.6 0 0 1 280.0,104.3 Z" fill="#c41e30"/><path d="M256,256 L236.0,129.6 A128.0,128.0 0 0 1 276.0,129.6 Z" fill="#1a1a1a"/><path d="M256,256 L295.6,5.7 A253.4,253.4 0 0 1 371.1,30.2 Z" fill="#1f9b4e"/><path d="M256,256 L290.4,38.6 A220.2,220.2 0 0 1 356.0,59.8 Z" fill="#ececec"/><path d="M256,256 L280.0,104.3 A153.6,153.6 0 0 1 325.7,119.1 Z" fill="#1f9b4e"/><path d="M256,256 L276.0,129.6 A128.0,128.0 0 0 1 314.1,142.0 Z" fill="#ececec"/><path d="M256,256 L371.1,30.2 A253.4,253.4 0 0 1 435.2,76.8 Z" fill="#c41e30"/><path d="M256,256 L356.0,59.8 A220.2,220.2 0 0 1 411.7,100.3 Z" fill="#1a1a1a"/><path d="M256,256 L325.7,119.1 A153.6,153.6 0 0 1 364.6,147.4 Z" fill="#c41e30"/><path d="M256,256 L314.1,142.0 A128.0,128.0 0 0 1 346.5,165.5 Z" fill="#1a1a1a"/><path d="M256,256 L435.2,76.8 A253.4,253.4 0 0 1 481.8,140.9 Z" fill="#1f9b4e"/><path d="M256,256 L411.7,100.3 A220.2,220.2 0 0 1 452.2,156.0 Z" fill="#ececec"/><path d="M256,256 L364.6,147.4 A153.6,153.6 0 0 1 392.9,186.3 Z" fill="#1f9b4e"/><path d="M256,256 L346.5,165.5 A128.0,128.0 0 0 1 370.0,197.9 Z" fill="#ececec"/><path d="M256,256 L481.8,140.9 A253.4,253.4 0 0 1 506.3,216.4 Z" fill="#c41e30"/><path d="M256,256 L452.2,156.0 A220.2,220.2 0 0 1 473.4,221.6 Z" fill="#1a1a1a"/><path d="M256,256 L392.9,186.3 A153.6,153.6 0 0 1 407.7,232.0 Z" fill="#c41e30"/><path d="M256,256 L370.0,197.9 A128.0,128.0 0 0 1 382.4,236.0 Z" fill="#1a1a1a"/><path d="M256,256 L506.3,216.4 A253.4,253.4 0 0 1 506.3,295.6 Z" fill="#1f9b4e"/><path d="M256,256 L473.4,221.6 A220.2,220.2 0 0 1 473.4,290.4 Z" fill="#ececec"/><path d="M256,256 L407.7,232.0 A153.6,153.6 0 0 1 407.7,280.0 Z" fill="#1f9b4e"/><path d="M256,256 L382.4,236.0 A128.0,128.0 0 0 1 382.4,276.0 Z" fill="#ececec"/><path d="M256,256 L506.3,295.6 A253.4,253.4 0 0 1 481.8,371.1 Z" fill="#c41e30"/><path d="M256,256 L473.4,290.4 A220.2,220.2 0 0 1 452.2,356.0 Z" fill="#1a1a1a"/><path d="M256,256 L407.7,280.0 A153.6,153.6 0 0 1 392.9,325.7 Z" fill="#c41e30"/><path d="M256,256 L382.4,276.0 A128.0,128.0 0 0 1 370.0,314.1 Z" fill="#1a1a1a"/><path d="M256,256 L481.8,371.1 A253.4,253.4 0 0 1 435.2,435.2 Z" fill="#1f9b4e"/><path d="M256,256 L452.2,356.0 A220.2,220.2 0 0 1 411.7,411.7 Z" fill="#ececec"/><path d="M256,256 L392.9,325.7 A153.6,153.6 0 0 1 364.6,364.6 Z" fill="#1f9b4e"/><path d="M256,256 L370.0,314.1 A128.0,128.0 0 0 1 346.5,346.5 Z" fill="#ececec"/><path d="M256,256 L435.2,435.2 A253.4,253.4 0 0 1 371.1,481.8 Z" fill="#c41e30"/><path d="M256,256 L411.7,411.7 A220.2,220.2 0 0 1 356.0,452.2 Z" fill="#1a1a1a"/><path d="M256,256 L364.6,364.6 A153.6,153.6 0 0 1 325.7,392.9 Z" fill="#c41e30"/><path d="M256,256 L346.5,346.5 A128.0,128.0 0 0 1 314.1,370.0 Z" fill="#1a1a1a"/><path d="M256,256 L371.1,481.8 A253.4,253.4 0 0 1 295.6,506.3 Z" fill="#1f9b4e"/><path d="M256,256 L356.0,452.2 A220.2,220.2 0 0 1 290.4,473.4 Z" fill="#ececec"/><path d="M256,256 L325.7,392.9 A153.6,153.6 0 0 1 280.0,407.7 Z" fill="#1f9b4e"/><path d="M256,256 L314.1,370.0 A128.0,128.0 0 0 1 276.0,382.4 Z" fill="#ececec"/><path d="M256,256 L295.6,506.3 A253.4,253.4 0 0 1 216.4,506.3 Z" fill="#c41e30"/><path d="M256,256 L290.4,473.4 A220.2,220.2 0 0 1 221.6,473.4 Z" fill="#1a1a1a"/><path d="M256,256 L280.0,407.7 A153.6,153.6 0 0 1 232.0,407.7 Z" fill="#c41e30"/><path d="M256,256 L276.0,382.4 A128.0,128.0 0 0 1 236.0,382.4 Z" fill="#1a1a1a"/><path d="M256,256 L216.4,506.3 A253.4,253.4 0 0 1 140.9,481.8 Z" fill="#1f9b4e"/><path d="M256,256 L221.6,473.4 A220.2,220.2 0 0 1 156.0,452.2 Z" fill="#ececec"/><path d="M256,256 L232.0,407.7 A153.6,153.6 0 0 1 186.3,392.9 Z" fill="#1f9b4e"/><path d="M256,256 L236.0,382.4 A128.0,128.0 0 0 1 197.9,370.0 Z" fill="#ececec"/><path d="M256,256 L140.9,481.8 A253.4,253.4 0 0 1 76.8,435.2 Z" fill="#c41e30"/><path d="M256,256 L156.0,452.2 A220.2,220.2 0 0 1 100.3,411.7 Z" fill="#1a1a1a"/><path d="M256,256 L186.3,392.9 A153.6,153.6 0 0 1 147.4,364.6 Z" fill="#c41e30"/><path d="M256,256 L197.9,370.0 A128.0,128.0 0 0 1 165.5,346.5 Z" fill="#1a1a1a"/><path d="M256,256 L76.8,435.2 A253.4,253.4 0 0 1 30.2,371.1 Z" fill="#1f9b4e"/><path d="M256,256 L100.3,411.7 A220.2,220.2 0 0 1 59.8,356.0 Z" fill="#ececec"/><path d="M256,256 L147.4,364.6 A153.6,153.6 0 0 1 119.1,325.7 Z" fill="#1f9b4e"/><path d="M256,256 L165.5,346.5 A128.0,128.0 0 0 1 142.0,314.1 Z" fill="#ececec"/><path d="M256,256 L30.2,371.1 A253.4,253.4 0 0 1 5.7,295.6 Z" fill="#c41e30"/><path d="M256,256 L59.8,356.0 A220.2,220.2 0 0 1 38.6,290.4 Z" fill="#1a1a1a"/><path d="M256,256 L119.1,325.7 A153.6,153.6 0 0 1 104.3,280.0 Z" fill="#c41e30"/><path d="M256,256 L142.0,314.1 A128.0,128.0 0 0 1 129.6,276.0 Z" fill="#1a1a1a"/><path d="M256,256 L5.7,295.6 A253.4,253.4 0 0 1 5.7,216.4 Z" fill="#1f9b4e"/><path d="M256,256 L38.6,290.4 A220.2,220.2 0 0 1 38.6,221.6 Z" fill="#ececec"/><path d="M256,256 L104.3,280.0 A153.6,153.6 0 0 1 104.3,232.0 Z" fill="#1f9b4e"/><path d="M256,256 L129.6,276.0 A128.0,128.0 0 0 1 129.6,236.0 Z" fill="#ececec"/><path d="M256,256 L5.7,216.4 A253.4,253.4 0 0 1 30.2,140.9 Z" fill="#c41e30"/><path d="M256,256 L38.6,221.6 A220.2,220.2 0 0 1 59.8,156.0 Z" fill="#1a1a1a"/><path d="M256,256 L104.3,232.0 A153.6,153.6 0 0 1 119.1,186.3 Z" fill="#c41e30"/><path d="M256,256 L129.6,236.0 A128.0,128.0 0 0 1 142.0,197.9 Z" fill="#1a1a1a"/><path d="M256,256 L30.2,140.9 A253.4,253.4 0 0 1 76.8,76.8 Z" fill="#1f9b4e"/><path d="M256,256 L59.8,156.0 A220.2,220.2 0 0 1 100.3,100.3 Z" fill="#ececec"/><path d="M256,256 L119.1,186.3 A153.6,153.6 0 0 1 147.4,147.4 Z" fill="#1f9b4e"/><path d="M256,256 L142.0,197.9 A128.0,128.0 0 0 1 165.5,165.5 Z" fill="#ececec"/><path d="M256,256 L76.8,76.8 A253.4,253.4 0 0 1 140.9,30.2 Z" fill="#c41e30"/><path d="M256,256 L100.3,100.3 A220.2,220.2 0 0 1 156.0,59.8 Z" fill="#1a1a1a"/><path d="M256,256 L147.4,147.4 A153.6,153.6 0 0 1 186.3,119.1 Z" fill="#c41e30"/><path d="M256,256 L165.5,165.5 A128.0,128.0 0 0 1 197.9,142.0 Z" fill="#1a1a1a"/><path d="M256,256 L140.9,30.2 A253.4,253.4 0 0 1 216.4,5.7 Z" fill="#1f9b4e"/><path d="M256,256 L156.0,59.8 A220.2,220.2 0 0 1 221.6,38.6 Z" fill="#ececec"/><path d="M256,256 L186.3,119.1 A153.6,153.6 0 0 1 232.0,104.3 Z" fill="#1f9b4e"/><path d="M256,256 L197.9,142.0 A128.0,128.0 0 0 1 236.0,129.6 Z" fill="#ececec"/><circle cx="256" cy="256" r="25.6" fill="#1f9b4e"/><circle cx="256" cy="256" r="11.5" fill="#c41e30"/><g transform="translate(140,72) scale(1.55)"><path d="M8.8,212.0 C-7.4,200.0 -4.7,150.0 0.8,116.0 C7.5,62.0 35.8,16.0 75.0,16.0 C114.2,16.0 142.5,62.0 149.2,116.0 C154.7,150.0 157.4,200.0 141.2,212.0 C130.3,224.0 122.2,214.0 111.5,224.0 C98.0,236.0 84.5,218.0 75.0,226.0 C65.5,234.0 52.0,218.0 38.5,224.0 C27.8,228.0 19.6,222.0 8.8,212.0 Z" fill="#f6f6f8" stroke="#1a1a2a" stroke-width="5.5" stroke-linejoin="round"/><g transform="rotate(-7 75 96)"><rect x="48.5" y="83.5" width="53.0" height="7.0" rx="3.0" fill="#22223a"/><rect x="50.5" y="88.5" width="21.0" height="15.0" rx="6.0" fill="#22223a"/><rect x="78.5" y="88.5" width="21.0" height="15.0" rx="6.0" fill="#22223a"/><rect x="70.5" y="89.5" width="9.0" height="4.0" rx="2.0" fill="#22223a"/><line x1="50.5" y1="88.5" x2="43.5" y2="85.5" stroke="#22223a" stroke-width="3.5" stroke-linecap="round"/><line x1="99.5" y1="88.5" x2="106.5" y2="85.5" stroke="#22223a" stroke-width="3.5" stroke-linecap="round"/><line x1="46.3" y1="99.0" x2="55.8" y2="91.5" stroke="#fff" stroke-width="2.6" stroke-linecap="round" opacity="0.85"/><line x1="74.3" y1="99.0" x2="83.8" y2="91.5" stroke="#fff" stroke-width="2.6" stroke-linecap="round" opacity="0.85"/></g><path d="M58.0,106.0 Q75.0,128.0 92.0,106.0 Q75.0,112.0 58.0,106.0 Z" fill="#22223a"/><path d="M63.0,108.5 Q75.0,113.0 87.0,108.5" fill="none" stroke="#fff" stroke-width="2.2"/></g></g></svg>